<mxfile host="Electron" modified="2024-04-13T08:25:46.806Z" agent="Mozilla/5.0 (Windows NT 10.0; Win64; x64) AppleWebKit/537.36 (KHTML, like Gecko) draw.io/24.1.0 Chrome/120.0.6099.109 Electron/28.1.0 Safari/537.36" etag="tec772kqPazCBtiWSoR_" version="24.1.0" type="device">
  <diagram name="Page-1" id="hzbpKX7XHsN-LYuMfMjc">
    <mxGraphModel dx="1050" dy="621" grid="1" gridSize="10" guides="1" tooltips="1" connect="1" arrows="1" fold="1" page="1" pageScale="1" pageWidth="850" pageHeight="1100" math="0" shadow="0">
      <root>
        <mxCell id="0" />
        <mxCell id="1" parent="0" />
        <mxCell id="rWQtc4DlcJv6GrqKv7Jx-3" value="" style="edgeStyle=orthogonalEdgeStyle;rounded=0;orthogonalLoop=1;jettySize=auto;html=1;" edge="1" parent="1" source="rWQtc4DlcJv6GrqKv7Jx-1" target="rWQtc4DlcJv6GrqKv7Jx-2">
          <mxGeometry relative="1" as="geometry" />
        </mxCell>
        <mxCell id="rWQtc4DlcJv6GrqKv7Jx-1" value="START" style="rounded=1;whiteSpace=wrap;html=1;" vertex="1" parent="1">
          <mxGeometry x="365" y="20" width="120" height="60" as="geometry" />
        </mxCell>
        <mxCell id="rWQtc4DlcJv6GrqKv7Jx-5" value="" style="edgeStyle=orthogonalEdgeStyle;rounded=0;orthogonalLoop=1;jettySize=auto;html=1;" edge="1" parent="1" source="rWQtc4DlcJv6GrqKv7Jx-2" target="rWQtc4DlcJv6GrqKv7Jx-4">
          <mxGeometry relative="1" as="geometry" />
        </mxCell>
        <mxCell id="rWQtc4DlcJv6GrqKv7Jx-2" value="i = 1" style="shape=parallelogram;perimeter=parallelogramPerimeter;whiteSpace=wrap;html=1;fixedSize=1;" vertex="1" parent="1">
          <mxGeometry x="365" y="130" width="120" height="60" as="geometry" />
        </mxCell>
        <mxCell id="rWQtc4DlcJv6GrqKv7Jx-7" value="" style="edgeStyle=orthogonalEdgeStyle;rounded=0;orthogonalLoop=1;jettySize=auto;html=1;" edge="1" parent="1" source="rWQtc4DlcJv6GrqKv7Jx-4" target="rWQtc4DlcJv6GrqKv7Jx-6">
          <mxGeometry relative="1" as="geometry" />
        </mxCell>
        <mxCell id="rWQtc4DlcJv6GrqKv7Jx-8" value="TRUE" style="edgeLabel;html=1;align=center;verticalAlign=middle;resizable=0;points=[];" vertex="1" connectable="0" parent="rWQtc4DlcJv6GrqKv7Jx-7">
          <mxGeometry x="-0.2079" y="1" relative="1" as="geometry">
            <mxPoint as="offset" />
          </mxGeometry>
        </mxCell>
        <mxCell id="rWQtc4DlcJv6GrqKv7Jx-17" style="edgeStyle=orthogonalEdgeStyle;rounded=0;orthogonalLoop=1;jettySize=auto;html=1;exitX=0;exitY=0.5;exitDx=0;exitDy=0;entryX=1;entryY=0.5;entryDx=0;entryDy=0;" edge="1" parent="1" source="rWQtc4DlcJv6GrqKv7Jx-4" target="rWQtc4DlcJv6GrqKv7Jx-16">
          <mxGeometry relative="1" as="geometry" />
        </mxCell>
        <mxCell id="rWQtc4DlcJv6GrqKv7Jx-18" value="FALSE" style="edgeLabel;html=1;align=center;verticalAlign=middle;resizable=0;points=[];" vertex="1" connectable="0" parent="rWQtc4DlcJv6GrqKv7Jx-17">
          <mxGeometry x="0.0361" y="-3" relative="1" as="geometry">
            <mxPoint as="offset" />
          </mxGeometry>
        </mxCell>
        <mxCell id="rWQtc4DlcJv6GrqKv7Jx-4" value="i &amp;lt;=100" style="shape=hexagon;perimeter=hexagonPerimeter2;whiteSpace=wrap;html=1;fixedSize=1;" vertex="1" parent="1">
          <mxGeometry x="365" y="240" width="120" height="80" as="geometry" />
        </mxCell>
        <mxCell id="rWQtc4DlcJv6GrqKv7Jx-11" value="" style="edgeStyle=orthogonalEdgeStyle;rounded=0;orthogonalLoop=1;jettySize=auto;html=1;" edge="1" parent="1" source="rWQtc4DlcJv6GrqKv7Jx-6" target="rWQtc4DlcJv6GrqKv7Jx-9">
          <mxGeometry relative="1" as="geometry" />
        </mxCell>
        <mxCell id="rWQtc4DlcJv6GrqKv7Jx-13" value="TRUE" style="edgeLabel;html=1;align=center;verticalAlign=middle;resizable=0;points=[];" vertex="1" connectable="0" parent="rWQtc4DlcJv6GrqKv7Jx-11">
          <mxGeometry x="-0.4455" relative="1" as="geometry">
            <mxPoint as="offset" />
          </mxGeometry>
        </mxCell>
        <mxCell id="rWQtc4DlcJv6GrqKv7Jx-14" style="edgeStyle=orthogonalEdgeStyle;rounded=0;orthogonalLoop=1;jettySize=auto;html=1;exitX=0;exitY=0.5;exitDx=0;exitDy=0;entryX=0;entryY=0.5;entryDx=0;entryDy=0;" edge="1" parent="1" source="rWQtc4DlcJv6GrqKv7Jx-6" target="rWQtc4DlcJv6GrqKv7Jx-10">
          <mxGeometry relative="1" as="geometry" />
        </mxCell>
        <mxCell id="rWQtc4DlcJv6GrqKv7Jx-15" value="FALSE" style="edgeLabel;html=1;align=center;verticalAlign=middle;resizable=0;points=[];" vertex="1" connectable="0" parent="rWQtc4DlcJv6GrqKv7Jx-14">
          <mxGeometry x="-0.1508" y="-2" relative="1" as="geometry">
            <mxPoint as="offset" />
          </mxGeometry>
        </mxCell>
        <mxCell id="rWQtc4DlcJv6GrqKv7Jx-6" value="i % 3 == 0 &amp;amp;&amp;amp; i % 7 == 0" style="rhombus;whiteSpace=wrap;html=1;" vertex="1" parent="1">
          <mxGeometry x="324" y="370" width="203" height="80" as="geometry" />
        </mxCell>
        <mxCell id="rWQtc4DlcJv6GrqKv7Jx-12" value="" style="edgeStyle=orthogonalEdgeStyle;rounded=0;orthogonalLoop=1;jettySize=auto;html=1;" edge="1" parent="1" source="rWQtc4DlcJv6GrqKv7Jx-9" target="rWQtc4DlcJv6GrqKv7Jx-10">
          <mxGeometry relative="1" as="geometry" />
        </mxCell>
        <mxCell id="rWQtc4DlcJv6GrqKv7Jx-9" value="i" style="shape=document;whiteSpace=wrap;html=1;boundedLbl=1;" vertex="1" parent="1">
          <mxGeometry x="365" y="500" width="120" height="80" as="geometry" />
        </mxCell>
        <mxCell id="rWQtc4DlcJv6GrqKv7Jx-19" style="edgeStyle=orthogonalEdgeStyle;rounded=0;orthogonalLoop=1;jettySize=auto;html=1;exitX=1;exitY=0.5;exitDx=0;exitDy=0;entryX=1;entryY=0.5;entryDx=0;entryDy=0;" edge="1" parent="1" source="rWQtc4DlcJv6GrqKv7Jx-10" target="rWQtc4DlcJv6GrqKv7Jx-4">
          <mxGeometry relative="1" as="geometry">
            <Array as="points">
              <mxPoint x="600" y="670" />
              <mxPoint x="600" y="280" />
            </Array>
          </mxGeometry>
        </mxCell>
        <mxCell id="rWQtc4DlcJv6GrqKv7Jx-10" value="i++" style="rounded=0;whiteSpace=wrap;html=1;" vertex="1" parent="1">
          <mxGeometry x="365.5" y="640" width="120" height="60" as="geometry" />
        </mxCell>
        <mxCell id="rWQtc4DlcJv6GrqKv7Jx-16" value="END" style="rounded=1;whiteSpace=wrap;html=1;" vertex="1" parent="1">
          <mxGeometry x="40" y="250" width="120" height="60" as="geometry" />
        </mxCell>
      </root>
    </mxGraphModel>
  </diagram>
</mxfile>
